<svg xmlns="http://www.w3.org/2000/svg" viewBox="0 0 280 180" fill="none">
  <!-- fundo -->
  <rect width="280" height="180" rx="12" fill="#fffbeb"/>

  <!-- card principal -->
  <rect x="12" y="12" width="256" height="156" rx="8" fill="white" stroke="#fde68a" stroke-width="1"/>

  <!-- header da tabela -->
  <rect x="12" y="12" width="256" height="28" rx="8" fill="#fef3c7"/>
  <rect x="12" y="28" width="256" height="12" rx="0" fill="#fef3c7"/>

  <rect x="22" y="20" width="36" height="6" rx="3" fill="#f59e0b"/>
  <rect x="76" y="20" width="50" height="6" rx="3" fill="#f59e0b"/>
  <rect x="146" y="20" width="40" height="6" rx="3" fill="#f59e0b"/>
  <rect x="206" y="20" width="40" height="6" rx="3" fill="#f59e0b"/>

  <!-- linha 1 -->
  <!-- avatar -->
  <circle cx="32" cy="58" r="8" fill="#fde68a"/>
  <circle cx="32" cy="54" r="3" fill="#f59e0b"/>
  <path d="M24 62 Q32 57 40 62" fill="#f59e0b"/>
  <rect x="48" y="53" width="50" height="5" rx="2.5" fill="#e2e8f0"/>
  <rect x="48" y="61" width="30" height="4" rx="2" fill="#f1f5f9"/>
  <rect x="116" y="55" width="40" height="6" rx="3" fill="#e2e8f0"/>
  <rect x="176" y="55" width="36" height="6" rx="3" fill="#e2e8f0"/>
  <rect x="224" y="53" width="28" height="10" rx="5" fill="#d1fae5"/>
  <rect x="228" y="56" width="20" height="4" rx="2" fill="#10b981"/>

  <!-- divisor -->
  <line x1="22" y1="74" x2="258" y2="74" stroke="#f3f4f6" stroke-width="1"/>

  <!-- linha 2 -->
  <circle cx="32" cy="88" r="8" fill="#dbeafe"/>
  <circle cx="32" cy="84" r="3" fill="#3b82f6"/>
  <path d="M24 92 Q32 87 40 92" fill="#3b82f6"/>
  <rect x="48" y="83" width="50" height="5" rx="2.5" fill="#e2e8f0"/>
  <rect x="48" y="91" width="30" height="4" rx="2" fill="#f1f5f9"/>
  <rect x="116" y="85" width="40" height="6" rx="3" fill="#e2e8f0"/>
  <rect x="176" y="85" width="36" height="6" rx="3" fill="#e2e8f0"/>
  <rect x="224" y="83" width="28" height="10" rx="5" fill="#fee2e2"/>
  <rect x="228" y="86" width="20" height="4" rx="2" fill="#ef4444"/>

  <!-- divisor -->
  <line x1="22" y1="104" x2="258" y2="104" stroke="#f3f4f6" stroke-width="1"/>

  <!-- linha 3 -->
  <circle cx="32" cy="118" r="8" fill="#fde68a"/>
  <circle cx="32" cy="114" r="3" fill="#f59e0b"/>
  <path d="M24 122 Q32 117 40 122" fill="#f59e0b"/>
  <rect x="48" y="113" width="50" height="5" rx="2.5" fill="#e2e8f0"/>
  <rect x="48" y="121" width="30" height="4" rx="2" fill="#f1f5f9"/>
  <rect x="116" y="115" width="40" height="6" rx="3" fill="#e2e8f0"/>
  <rect x="176" y="115" width="36" height="6" rx="3" fill="#e2e8f0"/>
  <rect x="224" y="113" width="28" height="10" rx="5" fill="#d1fae5"/>
  <rect x="228" y="116" width="20" height="4" rx="2" fill="#10b981"/>

  <!-- divisor -->
  <line x1="22" y1="134" x2="258" y2="134" stroke="#f3f4f6" stroke-width="1"/>

  <!-- linha 4 -->
  <circle cx="32" cy="148" r="8" fill="#ede9fe"/>
  <circle cx="32" cy="144" r="3" fill="#7c3aed"/>
  <path d="M24 152 Q32 147 40 152" fill="#7c3aed"/>
  <rect x="48" y="143" width="50" height="5" rx="2.5" fill="#e2e8f0"/>
  <rect x="48" y="151" width="30" height="4" rx="2" fill="#f1f5f9"/>
  <rect x="116" y="145" width="40" height="6" rx="3" fill="#e2e8f0"/>
  <rect x="176" y="145" width="36" height="6" rx="3" fill="#e2e8f0"/>
  <rect x="224" y="143" width="28" height="10" rx="5" fill="#fee2e2"/>
  <rect x="228" y="146" width="20" height="4" rx="2" fill="#ef4444"/>
</svg>
